<mxfile host="65bd71144e">
    <diagram id="NHATRSg7Bnw0ZoYsbizd" name="Page-1">
        <mxGraphModel dx="1435" dy="1116" grid="1" gridSize="10" guides="1" tooltips="1" connect="1" arrows="1" fold="1" page="1" pageScale="1" pageWidth="850" pageHeight="1100" background="#ffffff" math="0" shadow="0">
            <root>
                <mxCell id="0"/>
                <mxCell id="1" parent="0"/>
                <mxCell id="6" value="User" style="shape=table;startSize=30;container=1;collapsible=0;childLayout=tableLayout;fixedRows=1;rowLines=0;fontStyle=1;rounded=1;strokeColor=#666666;fillColor=#f5f5f5;fontColor=#333333;fontSize=16;" vertex="1" parent="1">
                    <mxGeometry x="40" y="40" width="190" height="360" as="geometry"/>
                </mxCell>
                <mxCell id="7" value="" style="shape=tableRow;horizontal=0;startSize=0;swimlaneHead=0;swimlaneBody=0;top=0;left=0;bottom=0;right=0;collapsible=0;dropTarget=0;fillColor=none;points=[[0,0.5],[1,0.5]];portConstraint=eastwest;fontColor=#000000;fontSize=14;" vertex="1" parent="6">
                    <mxGeometry y="30" width="190" height="30" as="geometry"/>
                </mxCell>
                <mxCell id="8" value="String" style="shape=partialRectangle;html=1;whiteSpace=wrap;connectable=0;fillColor=none;top=0;left=0;bottom=0;right=0;overflow=hidden;pointerEvents=1;fontColor=#000000;fontSize=14;" vertex="1" parent="7">
                    <mxGeometry width="70" height="30" as="geometry">
                        <mxRectangle width="70" height="30" as="alternateBounds"/>
                    </mxGeometry>
                </mxCell>
                <mxCell id="9" value="cpf*" style="shape=partialRectangle;html=1;whiteSpace=wrap;connectable=0;fillColor=none;top=0;left=0;bottom=0;right=0;align=left;spacingLeft=6;overflow=hidden;fontColor=#000000;fontSize=14;" vertex="1" parent="7">
                    <mxGeometry x="70" width="120" height="30" as="geometry">
                        <mxRectangle width="120" height="30" as="alternateBounds"/>
                    </mxGeometry>
                </mxCell>
                <mxCell id="10" value="" style="shape=tableRow;horizontal=0;startSize=0;swimlaneHead=0;swimlaneBody=0;top=0;left=0;bottom=0;right=0;collapsible=0;dropTarget=0;fillColor=none;points=[[0,0.5],[1,0.5]];portConstraint=eastwest;fontColor=#000000;fontSize=14;" vertex="1" parent="6">
                    <mxGeometry y="60" width="190" height="30" as="geometry"/>
                </mxCell>
                <mxCell id="11" value="String?" style="shape=partialRectangle;html=1;whiteSpace=wrap;connectable=0;fillColor=none;top=0;left=0;bottom=0;right=0;overflow=hidden;fontColor=#000000;fontSize=14;" vertex="1" parent="10">
                    <mxGeometry width="70" height="30" as="geometry">
                        <mxRectangle width="70" height="30" as="alternateBounds"/>
                    </mxGeometry>
                </mxCell>
                <mxCell id="12" value="username" style="shape=partialRectangle;html=1;whiteSpace=wrap;connectable=0;fillColor=none;top=0;left=0;bottom=0;right=0;align=left;spacingLeft=6;overflow=hidden;fontColor=#000000;fontSize=14;" vertex="1" parent="10">
                    <mxGeometry x="70" width="120" height="30" as="geometry">
                        <mxRectangle width="120" height="30" as="alternateBounds"/>
                    </mxGeometry>
                </mxCell>
                <mxCell id="13" value="" style="shape=tableRow;horizontal=0;startSize=0;swimlaneHead=0;swimlaneBody=0;top=0;left=0;bottom=0;right=0;collapsible=0;dropTarget=0;fillColor=none;points=[[0,0.5],[1,0.5]];portConstraint=eastwest;fontColor=#000000;fontSize=14;" vertex="1" parent="6">
                    <mxGeometry y="90" width="190" height="30" as="geometry"/>
                </mxCell>
                <mxCell id="14" value="String" style="shape=partialRectangle;html=1;whiteSpace=wrap;connectable=0;fillColor=none;top=0;left=0;bottom=0;right=0;overflow=hidden;fontColor=#000000;fontSize=14;" vertex="1" parent="13">
                    <mxGeometry width="70" height="30" as="geometry">
                        <mxRectangle width="70" height="30" as="alternateBounds"/>
                    </mxGeometry>
                </mxCell>
                <mxCell id="15" value="email" style="shape=partialRectangle;html=1;whiteSpace=wrap;connectable=0;fillColor=none;top=0;left=0;bottom=0;right=0;align=left;spacingLeft=6;overflow=hidden;fontColor=#000000;fontSize=14;" vertex="1" parent="13">
                    <mxGeometry x="70" width="120" height="30" as="geometry">
                        <mxRectangle width="120" height="30" as="alternateBounds"/>
                    </mxGeometry>
                </mxCell>
                <mxCell id="26" style="shape=tableRow;horizontal=0;startSize=0;swimlaneHead=0;swimlaneBody=0;top=0;left=0;bottom=0;right=0;collapsible=0;dropTarget=0;fillColor=none;points=[[0,0.5],[1,0.5]];portConstraint=eastwest;fontColor=#000000;fontSize=14;" vertex="1" parent="6">
                    <mxGeometry y="120" width="190" height="30" as="geometry"/>
                </mxCell>
                <mxCell id="27" value="String" style="shape=partialRectangle;html=1;whiteSpace=wrap;connectable=0;fillColor=none;top=0;left=0;bottom=0;right=0;overflow=hidden;fontColor=#000000;fontSize=14;" vertex="1" parent="26">
                    <mxGeometry width="70" height="30" as="geometry">
                        <mxRectangle width="70" height="30" as="alternateBounds"/>
                    </mxGeometry>
                </mxCell>
                <mxCell id="28" value="senha" style="shape=partialRectangle;html=1;whiteSpace=wrap;connectable=0;fillColor=none;top=0;left=0;bottom=0;right=0;align=left;spacingLeft=6;overflow=hidden;fontColor=#000000;fontSize=14;" vertex="1" parent="26">
                    <mxGeometry x="70" width="120" height="30" as="geometry">
                        <mxRectangle width="120" height="30" as="alternateBounds"/>
                    </mxGeometry>
                </mxCell>
                <mxCell id="29" style="shape=tableRow;horizontal=0;startSize=0;swimlaneHead=0;swimlaneBody=0;top=0;left=0;bottom=0;right=0;collapsible=0;dropTarget=0;fillColor=none;points=[[0,0.5],[1,0.5]];portConstraint=eastwest;fontColor=#000000;fontSize=14;" vertex="1" parent="6">
                    <mxGeometry y="150" width="190" height="30" as="geometry"/>
                </mxCell>
                <mxCell id="30" value="String" style="shape=partialRectangle;html=1;whiteSpace=wrap;connectable=0;fillColor=none;top=0;left=0;bottom=0;right=0;overflow=hidden;fontColor=#000000;fontSize=14;" vertex="1" parent="29">
                    <mxGeometry width="70" height="30" as="geometry">
                        <mxRectangle width="70" height="30" as="alternateBounds"/>
                    </mxGeometry>
                </mxCell>
                <mxCell id="31" value="nome" style="shape=partialRectangle;html=1;whiteSpace=wrap;connectable=0;fillColor=none;top=0;left=0;bottom=0;right=0;align=left;spacingLeft=6;overflow=hidden;fontColor=#000000;fontSize=14;" vertex="1" parent="29">
                    <mxGeometry x="70" width="120" height="30" as="geometry">
                        <mxRectangle width="120" height="30" as="alternateBounds"/>
                    </mxGeometry>
                </mxCell>
                <mxCell id="32" style="shape=tableRow;horizontal=0;startSize=0;swimlaneHead=0;swimlaneBody=0;top=0;left=0;bottom=0;right=0;collapsible=0;dropTarget=0;fillColor=none;points=[[0,0.5],[1,0.5]];portConstraint=eastwest;fontColor=#000000;fontSize=14;" vertex="1" parent="6">
                    <mxGeometry y="180" width="190" height="30" as="geometry"/>
                </mxCell>
                <mxCell id="33" value="String" style="shape=partialRectangle;html=1;whiteSpace=wrap;connectable=0;fillColor=none;top=0;left=0;bottom=0;right=0;overflow=hidden;fontColor=#000000;fontSize=14;" vertex="1" parent="32">
                    <mxGeometry width="70" height="30" as="geometry">
                        <mxRectangle width="70" height="30" as="alternateBounds"/>
                    </mxGeometry>
                </mxCell>
                <mxCell id="34" value="sobrenome" style="shape=partialRectangle;html=1;whiteSpace=wrap;connectable=0;fillColor=none;top=0;left=0;bottom=0;right=0;align=left;spacingLeft=6;overflow=hidden;fontColor=#000000;fontSize=14;" vertex="1" parent="32">
                    <mxGeometry x="70" width="120" height="30" as="geometry">
                        <mxRectangle width="120" height="30" as="alternateBounds"/>
                    </mxGeometry>
                </mxCell>
                <mxCell id="35" style="shape=tableRow;horizontal=0;startSize=0;swimlaneHead=0;swimlaneBody=0;top=0;left=0;bottom=0;right=0;collapsible=0;dropTarget=0;fillColor=none;points=[[0,0.5],[1,0.5]];portConstraint=eastwest;fontColor=#000000;fontSize=14;" vertex="1" parent="6">
                    <mxGeometry y="210" width="190" height="30" as="geometry"/>
                </mxCell>
                <mxCell id="36" value="DateTime" style="shape=partialRectangle;html=1;whiteSpace=wrap;connectable=0;fillColor=none;top=0;left=0;bottom=0;right=0;overflow=hidden;fontColor=#000000;fontSize=14;" vertex="1" parent="35">
                    <mxGeometry width="70" height="30" as="geometry">
                        <mxRectangle width="70" height="30" as="alternateBounds"/>
                    </mxGeometry>
                </mxCell>
                <mxCell id="37" value="dataNascimento" style="shape=partialRectangle;html=1;whiteSpace=wrap;connectable=0;fillColor=none;top=0;left=0;bottom=0;right=0;align=left;spacingLeft=6;overflow=hidden;fontColor=#000000;fontSize=14;" vertex="1" parent="35">
                    <mxGeometry x="70" width="120" height="30" as="geometry">
                        <mxRectangle width="120" height="30" as="alternateBounds"/>
                    </mxGeometry>
                </mxCell>
                <mxCell id="38" style="shape=tableRow;horizontal=0;startSize=0;swimlaneHead=0;swimlaneBody=0;top=0;left=0;bottom=0;right=0;collapsible=0;dropTarget=0;fillColor=none;points=[[0,0.5],[1,0.5]];portConstraint=eastwest;fontColor=#000000;fontSize=14;" vertex="1" parent="6">
                    <mxGeometry y="240" width="190" height="30" as="geometry"/>
                </mxCell>
                <mxCell id="39" value="String?" style="shape=partialRectangle;html=1;whiteSpace=wrap;connectable=0;fillColor=none;top=0;left=0;bottom=0;right=0;overflow=hidden;fontColor=#000000;fontSize=14;" vertex="1" parent="38">
                    <mxGeometry width="70" height="30" as="geometry">
                        <mxRectangle width="70" height="30" as="alternateBounds"/>
                    </mxGeometry>
                </mxCell>
                <mxCell id="40" value="celular" style="shape=partialRectangle;html=1;whiteSpace=wrap;connectable=0;fillColor=none;top=0;left=0;bottom=0;right=0;align=left;spacingLeft=6;overflow=hidden;fontColor=#000000;fontSize=14;" vertex="1" parent="38">
                    <mxGeometry x="70" width="120" height="30" as="geometry">
                        <mxRectangle width="120" height="30" as="alternateBounds"/>
                    </mxGeometry>
                </mxCell>
                <mxCell id="41" style="shape=tableRow;horizontal=0;startSize=0;swimlaneHead=0;swimlaneBody=0;top=0;left=0;bottom=0;right=0;collapsible=0;dropTarget=0;fillColor=none;points=[[0,0.5],[1,0.5]];portConstraint=eastwest;fontColor=#000000;fontSize=14;" vertex="1" parent="6">
                    <mxGeometry y="270" width="190" height="30" as="geometry"/>
                </mxCell>
                <mxCell id="42" value="String?" style="shape=partialRectangle;html=1;whiteSpace=wrap;connectable=0;fillColor=none;top=0;left=0;bottom=0;right=0;overflow=hidden;fontColor=#000000;fontSize=14;" vertex="1" parent="41">
                    <mxGeometry width="70" height="30" as="geometry">
                        <mxRectangle width="70" height="30" as="alternateBounds"/>
                    </mxGeometry>
                </mxCell>
                <mxCell id="43" value="telefone" style="shape=partialRectangle;html=1;whiteSpace=wrap;connectable=0;fillColor=none;top=0;left=0;bottom=0;right=0;align=left;spacingLeft=6;overflow=hidden;fontColor=#000000;fontSize=14;" vertex="1" parent="41">
                    <mxGeometry x="70" width="120" height="30" as="geometry">
                        <mxRectangle width="120" height="30" as="alternateBounds"/>
                    </mxGeometry>
                </mxCell>
                <mxCell id="44" style="shape=tableRow;horizontal=0;startSize=0;swimlaneHead=0;swimlaneBody=0;top=0;left=0;bottom=0;right=0;collapsible=0;dropTarget=0;fillColor=none;points=[[0,0.5],[1,0.5]];portConstraint=eastwest;fontColor=#000000;fontSize=14;" vertex="1" parent="6">
                    <mxGeometry y="300" width="190" height="30" as="geometry"/>
                </mxCell>
                <mxCell id="45" value="String" style="shape=partialRectangle;html=1;whiteSpace=wrap;connectable=0;fillColor=none;top=0;left=0;bottom=0;right=0;overflow=hidden;fontColor=#000000;fontSize=14;" vertex="1" parent="44">
                    <mxGeometry width="70" height="30" as="geometry">
                        <mxRectangle width="70" height="30" as="alternateBounds"/>
                    </mxGeometry>
                </mxCell>
                <mxCell id="46" value="cargo" style="shape=partialRectangle;html=1;whiteSpace=wrap;connectable=0;fillColor=none;top=0;left=0;bottom=0;right=0;align=left;spacingLeft=6;overflow=hidden;fontColor=#000000;fontSize=14;" vertex="1" parent="44">
                    <mxGeometry x="70" width="120" height="30" as="geometry">
                        <mxRectangle width="120" height="30" as="alternateBounds"/>
                    </mxGeometry>
                </mxCell>
                <mxCell id="47" style="shape=tableRow;horizontal=0;startSize=0;swimlaneHead=0;swimlaneBody=0;top=0;left=0;bottom=0;right=0;collapsible=0;dropTarget=0;fillColor=none;points=[[0,0.5],[1,0.5]];portConstraint=eastwest;fontColor=#000000;fontSize=14;" vertex="1" parent="6">
                    <mxGeometry y="330" width="190" height="30" as="geometry"/>
                </mxCell>
                <mxCell id="48" value="String?" style="shape=partialRectangle;html=1;whiteSpace=wrap;connectable=0;fillColor=none;top=0;left=0;bottom=0;right=0;overflow=hidden;fontColor=#000000;fontSize=14;" vertex="1" parent="47">
                    <mxGeometry width="70" height="30" as="geometry">
                        <mxRectangle width="70" height="30" as="alternateBounds"/>
                    </mxGeometry>
                </mxCell>
                <mxCell id="49" value="rank" style="shape=partialRectangle;html=1;whiteSpace=wrap;connectable=0;fillColor=none;top=0;left=0;bottom=0;right=0;align=left;spacingLeft=6;overflow=hidden;fontColor=#000000;fontSize=14;" vertex="1" parent="47">
                    <mxGeometry x="70" width="120" height="30" as="geometry">
                        <mxRectangle width="120" height="30" as="alternateBounds"/>
                    </mxGeometry>
                </mxCell>
                <mxCell id="196" value="Campeonatos" style="shape=table;startSize=30;container=1;collapsible=0;childLayout=tableLayout;fixedRows=1;rowLines=0;fontStyle=1;rounded=1;strokeColor=#666666;fillColor=#f5f5f5;fontColor=#333333;fontSize=16;" vertex="1" parent="1">
                    <mxGeometry x="870" y="40" width="190" height="420" as="geometry"/>
                </mxCell>
                <mxCell id="197" value="" style="shape=tableRow;horizontal=0;startSize=0;swimlaneHead=0;swimlaneBody=0;top=0;left=0;bottom=0;right=0;collapsible=0;dropTarget=0;fillColor=none;points=[[0,0.5],[1,0.5]];portConstraint=eastwest;fontColor=#000000;fontSize=14;" vertex="1" parent="196">
                    <mxGeometry y="30" width="190" height="30" as="geometry"/>
                </mxCell>
                <mxCell id="198" value="String" style="shape=partialRectangle;html=1;whiteSpace=wrap;connectable=0;fillColor=none;top=0;left=0;bottom=0;right=0;overflow=hidden;pointerEvents=1;fontColor=#000000;fontSize=14;" vertex="1" parent="197">
                    <mxGeometry width="70" height="30" as="geometry">
                        <mxRectangle width="70" height="30" as="alternateBounds"/>
                    </mxGeometry>
                </mxCell>
                <mxCell id="199" value="id*" style="shape=partialRectangle;html=1;whiteSpace=wrap;connectable=0;fillColor=none;top=0;left=0;bottom=0;right=0;align=left;spacingLeft=6;overflow=hidden;fontColor=#000000;fontSize=14;" vertex="1" parent="197">
                    <mxGeometry x="70" width="120" height="30" as="geometry">
                        <mxRectangle width="120" height="30" as="alternateBounds"/>
                    </mxGeometry>
                </mxCell>
                <mxCell id="200" value="" style="shape=tableRow;horizontal=0;startSize=0;swimlaneHead=0;swimlaneBody=0;top=0;left=0;bottom=0;right=0;collapsible=0;dropTarget=0;fillColor=none;points=[[0,0.5],[1,0.5]];portConstraint=eastwest;fontColor=#000000;fontSize=14;" vertex="1" parent="196">
                    <mxGeometry y="60" width="190" height="30" as="geometry"/>
                </mxCell>
                <mxCell id="201" value="String" style="shape=partialRectangle;html=1;whiteSpace=wrap;connectable=0;fillColor=none;top=0;left=0;bottom=0;right=0;overflow=hidden;fontColor=#000000;fontSize=14;" vertex="1" parent="200">
                    <mxGeometry width="70" height="30" as="geometry">
                        <mxRectangle width="70" height="30" as="alternateBounds"/>
                    </mxGeometry>
                </mxCell>
                <mxCell id="202" value="id_criador" style="shape=partialRectangle;html=1;whiteSpace=wrap;connectable=0;fillColor=none;top=0;left=0;bottom=0;right=0;align=left;spacingLeft=6;overflow=hidden;fontColor=#000000;fontSize=14;" vertex="1" parent="200">
                    <mxGeometry x="70" width="120" height="30" as="geometry">
                        <mxRectangle width="120" height="30" as="alternateBounds"/>
                    </mxGeometry>
                </mxCell>
                <mxCell id="203" value="" style="shape=tableRow;horizontal=0;startSize=0;swimlaneHead=0;swimlaneBody=0;top=0;left=0;bottom=0;right=0;collapsible=0;dropTarget=0;fillColor=none;points=[[0,0.5],[1,0.5]];portConstraint=eastwest;fontColor=#000000;fontSize=14;" vertex="1" parent="196">
                    <mxGeometry y="90" width="190" height="30" as="geometry"/>
                </mxCell>
                <mxCell id="204" value="String" style="shape=partialRectangle;html=1;whiteSpace=wrap;connectable=0;fillColor=none;top=0;left=0;bottom=0;right=0;overflow=hidden;fontColor=#000000;fontSize=14;" vertex="1" parent="203">
                    <mxGeometry width="70" height="30" as="geometry">
                        <mxRectangle width="70" height="30" as="alternateBounds"/>
                    </mxGeometry>
                </mxCell>
                <mxCell id="205" value="nome" style="shape=partialRectangle;html=1;whiteSpace=wrap;connectable=0;fillColor=none;top=0;left=0;bottom=0;right=0;align=left;spacingLeft=6;overflow=hidden;fontColor=#000000;fontSize=14;" vertex="1" parent="203">
                    <mxGeometry x="70" width="120" height="30" as="geometry">
                        <mxRectangle width="120" height="30" as="alternateBounds"/>
                    </mxGeometry>
                </mxCell>
                <mxCell id="206" style="shape=tableRow;horizontal=0;startSize=0;swimlaneHead=0;swimlaneBody=0;top=0;left=0;bottom=0;right=0;collapsible=0;dropTarget=0;fillColor=none;points=[[0,0.5],[1,0.5]];portConstraint=eastwest;fontColor=#000000;fontSize=14;" vertex="1" parent="196">
                    <mxGeometry y="120" width="190" height="30" as="geometry"/>
                </mxCell>
                <mxCell id="207" value="String?" style="shape=partialRectangle;html=1;whiteSpace=wrap;connectable=0;fillColor=none;top=0;left=0;bottom=0;right=0;overflow=hidden;fontColor=#000000;fontSize=14;" vertex="1" parent="206">
                    <mxGeometry width="70" height="30" as="geometry">
                        <mxRectangle width="70" height="30" as="alternateBounds"/>
                    </mxGeometry>
                </mxCell>
                <mxCell id="208" value="descricao" style="shape=partialRectangle;html=1;whiteSpace=wrap;connectable=0;fillColor=none;top=0;left=0;bottom=0;right=0;align=left;spacingLeft=6;overflow=hidden;fontColor=#000000;fontSize=14;" vertex="1" parent="206">
                    <mxGeometry x="70" width="120" height="30" as="geometry">
                        <mxRectangle width="120" height="30" as="alternateBounds"/>
                    </mxGeometry>
                </mxCell>
                <mxCell id="209" style="shape=tableRow;horizontal=0;startSize=0;swimlaneHead=0;swimlaneBody=0;top=0;left=0;bottom=0;right=0;collapsible=0;dropTarget=0;fillColor=none;points=[[0,0.5],[1,0.5]];portConstraint=eastwest;fontColor=#000000;fontSize=14;" vertex="1" parent="196">
                    <mxGeometry y="150" width="190" height="30" as="geometry"/>
                </mxCell>
                <mxCell id="210" value="String" style="shape=partialRectangle;html=1;whiteSpace=wrap;connectable=0;fillColor=none;top=0;left=0;bottom=0;right=0;overflow=hidden;fontColor=#000000;fontSize=14;" vertex="1" parent="209">
                    <mxGeometry width="70" height="30" as="geometry">
                        <mxRectangle width="70" height="30" as="alternateBounds"/>
                    </mxGeometry>
                </mxCell>
                <mxCell id="211" value="tipo" style="shape=partialRectangle;html=1;whiteSpace=wrap;connectable=0;fillColor=none;top=0;left=0;bottom=0;right=0;align=left;spacingLeft=6;overflow=hidden;fontColor=#000000;fontSize=14;" vertex="1" parent="209">
                    <mxGeometry x="70" width="120" height="30" as="geometry">
                        <mxRectangle width="120" height="30" as="alternateBounds"/>
                    </mxGeometry>
                </mxCell>
                <mxCell id="212" style="shape=tableRow;horizontal=0;startSize=0;swimlaneHead=0;swimlaneBody=0;top=0;left=0;bottom=0;right=0;collapsible=0;dropTarget=0;fillColor=none;points=[[0,0.5],[1,0.5]];portConstraint=eastwest;fontColor=#000000;fontSize=14;" vertex="1" parent="196">
                    <mxGeometry y="180" width="190" height="30" as="geometry"/>
                </mxCell>
                <mxCell id="213" value="String" style="shape=partialRectangle;html=1;whiteSpace=wrap;connectable=0;fillColor=none;top=0;left=0;bottom=0;right=0;overflow=hidden;fontColor=#000000;fontSize=14;" vertex="1" parent="212">
                    <mxGeometry width="70" height="30" as="geometry">
                        <mxRectangle width="70" height="30" as="alternateBounds"/>
                    </mxGeometry>
                </mxCell>
                <mxCell id="214" value="regras" style="shape=partialRectangle;html=1;whiteSpace=wrap;connectable=0;fillColor=none;top=0;left=0;bottom=0;right=0;align=left;spacingLeft=6;overflow=hidden;fontColor=#000000;fontSize=14;" vertex="1" parent="212">
                    <mxGeometry x="70" width="120" height="30" as="geometry">
                        <mxRectangle width="120" height="30" as="alternateBounds"/>
                    </mxGeometry>
                </mxCell>
                <mxCell id="215" style="shape=tableRow;horizontal=0;startSize=0;swimlaneHead=0;swimlaneBody=0;top=0;left=0;bottom=0;right=0;collapsible=0;dropTarget=0;fillColor=none;points=[[0,0.5],[1,0.5]];portConstraint=eastwest;fontColor=#000000;fontSize=14;" vertex="1" parent="196">
                    <mxGeometry y="210" width="190" height="30" as="geometry"/>
                </mxCell>
                <mxCell id="216" value="DateTime" style="shape=partialRectangle;html=1;whiteSpace=wrap;connectable=0;fillColor=none;top=0;left=0;bottom=0;right=0;overflow=hidden;fontColor=#000000;fontSize=14;" vertex="1" parent="215">
                    <mxGeometry width="70" height="30" as="geometry">
                        <mxRectangle width="70" height="30" as="alternateBounds"/>
                    </mxGeometry>
                </mxCell>
                <mxCell id="217" value="classe" style="shape=partialRectangle;html=1;whiteSpace=wrap;connectable=0;fillColor=none;top=0;left=0;bottom=0;right=0;align=left;spacingLeft=6;overflow=hidden;fontColor=#000000;fontSize=14;" vertex="1" parent="215">
                    <mxGeometry x="70" width="120" height="30" as="geometry">
                        <mxRectangle width="120" height="30" as="alternateBounds"/>
                    </mxGeometry>
                </mxCell>
                <mxCell id="218" style="shape=tableRow;horizontal=0;startSize=0;swimlaneHead=0;swimlaneBody=0;top=0;left=0;bottom=0;right=0;collapsible=0;dropTarget=0;fillColor=none;points=[[0,0.5],[1,0.5]];portConstraint=eastwest;fontColor=#000000;fontSize=14;" vertex="1" parent="196">
                    <mxGeometry y="240" width="190" height="30" as="geometry"/>
                </mxCell>
                <mxCell id="219" value="Int" style="shape=partialRectangle;html=1;whiteSpace=wrap;connectable=0;fillColor=none;top=0;left=0;bottom=0;right=0;overflow=hidden;fontColor=#000000;fontSize=14;" vertex="1" parent="218">
                    <mxGeometry width="70" height="30" as="geometry">
                        <mxRectangle width="70" height="30" as="alternateBounds"/>
                    </mxGeometry>
                </mxCell>
                <mxCell id="220" value="numJogadores" style="shape=partialRectangle;html=1;whiteSpace=wrap;connectable=0;fillColor=none;top=0;left=0;bottom=0;right=0;align=left;spacingLeft=6;overflow=hidden;fontColor=#000000;fontSize=14;" vertex="1" parent="218">
                    <mxGeometry x="70" width="120" height="30" as="geometry">
                        <mxRectangle width="120" height="30" as="alternateBounds"/>
                    </mxGeometry>
                </mxCell>
                <mxCell id="221" style="shape=tableRow;horizontal=0;startSize=0;swimlaneHead=0;swimlaneBody=0;top=0;left=0;bottom=0;right=0;collapsible=0;dropTarget=0;fillColor=none;points=[[0,0.5],[1,0.5]];portConstraint=eastwest;fontColor=#000000;fontSize=14;" vertex="1" parent="196">
                    <mxGeometry y="270" width="190" height="30" as="geometry"/>
                </mxCell>
                <mxCell id="222" value="String?" style="shape=partialRectangle;html=1;whiteSpace=wrap;connectable=0;fillColor=none;top=0;left=0;bottom=0;right=0;overflow=hidden;fontColor=#000000;fontSize=14;" vertex="1" parent="221">
                    <mxGeometry width="70" height="30" as="geometry">
                        <mxRectangle width="70" height="30" as="alternateBounds"/>
                    </mxGeometry>
                </mxCell>
                <mxCell id="223" value="premiacao" style="shape=partialRectangle;html=1;whiteSpace=wrap;connectable=0;fillColor=none;top=0;left=0;bottom=0;right=0;align=left;spacingLeft=6;overflow=hidden;fontColor=#000000;fontSize=14;" vertex="1" parent="221">
                    <mxGeometry x="70" width="120" height="30" as="geometry">
                        <mxRectangle width="120" height="30" as="alternateBounds"/>
                    </mxGeometry>
                </mxCell>
                <mxCell id="224" style="shape=tableRow;horizontal=0;startSize=0;swimlaneHead=0;swimlaneBody=0;top=0;left=0;bottom=0;right=0;collapsible=0;dropTarget=0;fillColor=none;points=[[0,0.5],[1,0.5]];portConstraint=eastwest;fontColor=#000000;fontSize=14;" vertex="1" parent="196">
                    <mxGeometry y="300" width="190" height="30" as="geometry"/>
                </mxCell>
                <mxCell id="225" value="String" style="shape=partialRectangle;html=1;whiteSpace=wrap;connectable=0;fillColor=none;top=0;left=0;bottom=0;right=0;overflow=hidden;fontColor=#000000;fontSize=14;" vertex="1" parent="224">
                    <mxGeometry width="70" height="30" as="geometry">
                        <mxRectangle width="70" height="30" as="alternateBounds"/>
                    </mxGeometry>
                </mxCell>
                <mxCell id="226" value="local" style="shape=partialRectangle;html=1;whiteSpace=wrap;connectable=0;fillColor=none;top=0;left=0;bottom=0;right=0;align=left;spacingLeft=6;overflow=hidden;fontColor=#000000;fontSize=14;" vertex="1" parent="224">
                    <mxGeometry x="70" width="120" height="30" as="geometry">
                        <mxRectangle width="120" height="30" as="alternateBounds"/>
                    </mxGeometry>
                </mxCell>
                <mxCell id="227" style="shape=tableRow;horizontal=0;startSize=0;swimlaneHead=0;swimlaneBody=0;top=0;left=0;bottom=0;right=0;collapsible=0;dropTarget=0;fillColor=none;points=[[0,0.5],[1,0.5]];portConstraint=eastwest;fontColor=#000000;fontSize=14;" vertex="1" parent="196">
                    <mxGeometry y="330" width="190" height="30" as="geometry"/>
                </mxCell>
                <mxCell id="228" value="DateTime" style="shape=partialRectangle;html=1;whiteSpace=wrap;connectable=0;fillColor=none;top=0;left=0;bottom=0;right=0;overflow=hidden;fontColor=#000000;fontSize=14;" vertex="1" parent="227">
                    <mxGeometry width="70" height="30" as="geometry">
                        <mxRectangle width="70" height="30" as="alternateBounds"/>
                    </mxGeometry>
                </mxCell>
                <mxCell id="229" value="dataInicio" style="shape=partialRectangle;html=1;whiteSpace=wrap;connectable=0;fillColor=none;top=0;left=0;bottom=0;right=0;align=left;spacingLeft=6;overflow=hidden;fontColor=#000000;fontSize=14;" vertex="1" parent="227">
                    <mxGeometry x="70" width="120" height="30" as="geometry">
                        <mxRectangle width="120" height="30" as="alternateBounds"/>
                    </mxGeometry>
                </mxCell>
                <mxCell id="332" style="shape=tableRow;horizontal=0;startSize=0;swimlaneHead=0;swimlaneBody=0;top=0;left=0;bottom=0;right=0;collapsible=0;dropTarget=0;fillColor=none;points=[[0,0.5],[1,0.5]];portConstraint=eastwest;fontColor=#000000;fontSize=14;" vertex="1" parent="196">
                    <mxGeometry y="360" width="190" height="30" as="geometry"/>
                </mxCell>
                <mxCell id="333" value="DateTime" style="shape=partialRectangle;html=1;whiteSpace=wrap;connectable=0;fillColor=none;top=0;left=0;bottom=0;right=0;overflow=hidden;fontColor=#000000;fontSize=14;" vertex="1" parent="332">
                    <mxGeometry width="70" height="30" as="geometry">
                        <mxRectangle width="70" height="30" as="alternateBounds"/>
                    </mxGeometry>
                </mxCell>
                <mxCell id="334" value="dataFim" style="shape=partialRectangle;html=1;whiteSpace=wrap;connectable=0;fillColor=none;top=0;left=0;bottom=0;right=0;align=left;spacingLeft=6;overflow=hidden;fontColor=#000000;fontSize=14;" vertex="1" parent="332">
                    <mxGeometry x="70" width="120" height="30" as="geometry">
                        <mxRectangle width="120" height="30" as="alternateBounds"/>
                    </mxGeometry>
                </mxCell>
                <mxCell id="335" style="shape=tableRow;horizontal=0;startSize=0;swimlaneHead=0;swimlaneBody=0;top=0;left=0;bottom=0;right=0;collapsible=0;dropTarget=0;fillColor=none;points=[[0,0.5],[1,0.5]];portConstraint=eastwest;fontColor=#000000;fontSize=14;" vertex="1" parent="196">
                    <mxGeometry y="390" width="190" height="30" as="geometry"/>
                </mxCell>
                <mxCell id="336" value="String" style="shape=partialRectangle;html=1;whiteSpace=wrap;connectable=0;fillColor=none;top=0;left=0;bottom=0;right=0;overflow=hidden;fontColor=#000000;fontSize=14;" vertex="1" parent="335">
                    <mxGeometry width="70" height="30" as="geometry">
                        <mxRectangle width="70" height="30" as="alternateBounds"/>
                    </mxGeometry>
                </mxCell>
                <mxCell id="337" value="status" style="shape=partialRectangle;html=1;whiteSpace=wrap;connectable=0;fillColor=none;top=0;left=0;bottom=0;right=0;align=left;spacingLeft=6;overflow=hidden;fontColor=#000000;fontSize=14;" vertex="1" parent="335">
                    <mxGeometry x="70" width="120" height="30" as="geometry">
                        <mxRectangle width="120" height="30" as="alternateBounds"/>
                    </mxGeometry>
                </mxCell>
                <mxCell id="230" value="Inscricao" style="shape=table;startSize=30;container=1;collapsible=0;childLayout=tableLayout;fixedRows=1;rowLines=0;fontStyle=1;rounded=1;strokeColor=#666666;fillColor=#f5f5f5;fontColor=#333333;fontSize=16;" vertex="1" parent="1">
                    <mxGeometry x="450" y="220" width="190" height="180" as="geometry"/>
                </mxCell>
                <mxCell id="231" value="" style="shape=tableRow;horizontal=0;startSize=0;swimlaneHead=0;swimlaneBody=0;top=0;left=0;bottom=0;right=0;collapsible=0;dropTarget=0;fillColor=none;points=[[0,0.5],[1,0.5]];portConstraint=eastwest;fontColor=#000000;fontSize=14;" vertex="1" parent="230">
                    <mxGeometry y="30" width="190" height="30" as="geometry"/>
                </mxCell>
                <mxCell id="232" value="int" style="shape=partialRectangle;html=1;whiteSpace=wrap;connectable=0;fillColor=none;top=0;left=0;bottom=0;right=0;overflow=hidden;pointerEvents=1;fontColor=#000000;fontSize=14;" vertex="1" parent="231">
                    <mxGeometry width="70" height="30" as="geometry">
                        <mxRectangle width="70" height="30" as="alternateBounds"/>
                    </mxGeometry>
                </mxCell>
                <mxCell id="233" value="id" style="shape=partialRectangle;html=1;whiteSpace=wrap;connectable=0;fillColor=none;top=0;left=0;bottom=0;right=0;align=left;spacingLeft=6;overflow=hidden;fontColor=#000000;fontSize=14;" vertex="1" parent="231">
                    <mxGeometry x="70" width="120" height="30" as="geometry">
                        <mxRectangle width="120" height="30" as="alternateBounds"/>
                    </mxGeometry>
                </mxCell>
                <mxCell id="234" value="" style="shape=tableRow;horizontal=0;startSize=0;swimlaneHead=0;swimlaneBody=0;top=0;left=0;bottom=0;right=0;collapsible=0;dropTarget=0;fillColor=none;points=[[0,0.5],[1,0.5]];portConstraint=eastwest;fontColor=#000000;fontSize=14;" vertex="1" parent="230">
                    <mxGeometry y="60" width="190" height="30" as="geometry"/>
                </mxCell>
                <mxCell id="235" value="String" style="shape=partialRectangle;html=1;whiteSpace=wrap;connectable=0;fillColor=none;top=0;left=0;bottom=0;right=0;overflow=hidden;fontColor=#000000;fontSize=14;" vertex="1" parent="234">
                    <mxGeometry width="70" height="30" as="geometry">
                        <mxRectangle width="70" height="30" as="alternateBounds"/>
                    </mxGeometry>
                </mxCell>
                <mxCell id="236" value="id_campeonato" style="shape=partialRectangle;html=1;whiteSpace=wrap;connectable=0;fillColor=none;top=0;left=0;bottom=0;right=0;align=left;spacingLeft=6;overflow=hidden;fontColor=#000000;fontSize=14;" vertex="1" parent="234">
                    <mxGeometry x="70" width="120" height="30" as="geometry">
                        <mxRectangle width="120" height="30" as="alternateBounds"/>
                    </mxGeometry>
                </mxCell>
                <mxCell id="237" value="" style="shape=tableRow;horizontal=0;startSize=0;swimlaneHead=0;swimlaneBody=0;top=0;left=0;bottom=0;right=0;collapsible=0;dropTarget=0;fillColor=none;points=[[0,0.5],[1,0.5]];portConstraint=eastwest;fontColor=#000000;fontSize=14;" vertex="1" parent="230">
                    <mxGeometry y="90" width="190" height="30" as="geometry"/>
                </mxCell>
                <mxCell id="238" value="String" style="shape=partialRectangle;html=1;whiteSpace=wrap;connectable=0;fillColor=none;top=0;left=0;bottom=0;right=0;overflow=hidden;fontColor=#000000;fontSize=14;" vertex="1" parent="237">
                    <mxGeometry width="70" height="30" as="geometry">
                        <mxRectangle width="70" height="30" as="alternateBounds"/>
                    </mxGeometry>
                </mxCell>
                <mxCell id="239" value="id_jogador" style="shape=partialRectangle;html=1;whiteSpace=wrap;connectable=0;fillColor=none;top=0;left=0;bottom=0;right=0;align=left;spacingLeft=6;overflow=hidden;fontColor=#000000;fontSize=14;" vertex="1" parent="237">
                    <mxGeometry x="70" width="120" height="30" as="geometry">
                        <mxRectangle width="120" height="30" as="alternateBounds"/>
                    </mxGeometry>
                </mxCell>
                <mxCell id="240" style="shape=tableRow;horizontal=0;startSize=0;swimlaneHead=0;swimlaneBody=0;top=0;left=0;bottom=0;right=0;collapsible=0;dropTarget=0;fillColor=none;points=[[0,0.5],[1,0.5]];portConstraint=eastwest;fontColor=#000000;fontSize=14;" vertex="1" parent="230">
                    <mxGeometry y="120" width="190" height="30" as="geometry"/>
                </mxCell>
                <mxCell id="241" value="String" style="shape=partialRectangle;html=1;whiteSpace=wrap;connectable=0;fillColor=none;top=0;left=0;bottom=0;right=0;overflow=hidden;fontColor=#000000;fontSize=14;" vertex="1" parent="240">
                    <mxGeometry width="70" height="30" as="geometry">
                        <mxRectangle width="70" height="30" as="alternateBounds"/>
                    </mxGeometry>
                </mxCell>
                <mxCell id="242" value="situacao" style="shape=partialRectangle;html=1;whiteSpace=wrap;connectable=0;fillColor=none;top=0;left=0;bottom=0;right=0;align=left;spacingLeft=6;overflow=hidden;fontColor=#000000;fontSize=14;" vertex="1" parent="240">
                    <mxGeometry x="70" width="120" height="30" as="geometry">
                        <mxRectangle width="120" height="30" as="alternateBounds"/>
                    </mxGeometry>
                </mxCell>
                <mxCell id="243" style="shape=tableRow;horizontal=0;startSize=0;swimlaneHead=0;swimlaneBody=0;top=0;left=0;bottom=0;right=0;collapsible=0;dropTarget=0;fillColor=none;points=[[0,0.5],[1,0.5]];portConstraint=eastwest;fontColor=#000000;fontSize=14;" vertex="1" parent="230">
                    <mxGeometry y="150" width="190" height="30" as="geometry"/>
                </mxCell>
                <mxCell id="244" value="DateTime" style="shape=partialRectangle;html=1;whiteSpace=wrap;connectable=0;fillColor=none;top=0;left=0;bottom=0;right=0;overflow=hidden;fontColor=#000000;fontSize=14;" vertex="1" parent="243">
                    <mxGeometry width="70" height="30" as="geometry">
                        <mxRectangle width="70" height="30" as="alternateBounds"/>
                    </mxGeometry>
                </mxCell>
                <mxCell id="245" value="dataInscricao" style="shape=partialRectangle;html=1;whiteSpace=wrap;connectable=0;fillColor=none;top=0;left=0;bottom=0;right=0;align=left;spacingLeft=6;overflow=hidden;fontColor=#000000;fontSize=14;" vertex="1" parent="243">
                    <mxGeometry x="70" width="120" height="30" as="geometry">
                        <mxRectangle width="120" height="30" as="alternateBounds"/>
                    </mxGeometry>
                </mxCell>
                <mxCell id="264" value="Disponibilidade" style="shape=table;startSize=30;container=1;collapsible=0;childLayout=tableLayout;fixedRows=1;rowLines=0;fontStyle=1;rounded=1;strokeColor=#666666;fillColor=#f5f5f5;fontColor=#333333;fontSize=16;" vertex="1" parent="1">
                    <mxGeometry x="40" y="680" width="190" height="150" as="geometry"/>
                </mxCell>
                <mxCell id="265" value="" style="shape=tableRow;horizontal=0;startSize=0;swimlaneHead=0;swimlaneBody=0;top=0;left=0;bottom=0;right=0;collapsible=0;dropTarget=0;fillColor=none;points=[[0,0.5],[1,0.5]];portConstraint=eastwest;fontColor=#000000;fontSize=14;" vertex="1" parent="264">
                    <mxGeometry y="30" width="190" height="30" as="geometry"/>
                </mxCell>
                <mxCell id="266" value="String" style="shape=partialRectangle;html=1;whiteSpace=wrap;connectable=0;fillColor=none;top=0;left=0;bottom=0;right=0;overflow=hidden;pointerEvents=1;fontColor=#000000;fontSize=14;" vertex="1" parent="265">
                    <mxGeometry width="70" height="30" as="geometry">
                        <mxRectangle width="70" height="30" as="alternateBounds"/>
                    </mxGeometry>
                </mxCell>
                <mxCell id="267" value="id*" style="shape=partialRectangle;html=1;whiteSpace=wrap;connectable=0;fillColor=none;top=0;left=0;bottom=0;right=0;align=left;spacingLeft=6;overflow=hidden;fontColor=#000000;fontSize=14;" vertex="1" parent="265">
                    <mxGeometry x="70" width="120" height="30" as="geometry">
                        <mxRectangle width="120" height="30" as="alternateBounds"/>
                    </mxGeometry>
                </mxCell>
                <mxCell id="268" value="" style="shape=tableRow;horizontal=0;startSize=0;swimlaneHead=0;swimlaneBody=0;top=0;left=0;bottom=0;right=0;collapsible=0;dropTarget=0;fillColor=none;points=[[0,0.5],[1,0.5]];portConstraint=eastwest;fontColor=#000000;fontSize=14;" vertex="1" parent="264">
                    <mxGeometry y="60" width="190" height="30" as="geometry"/>
                </mxCell>
                <mxCell id="269" value="String?" style="shape=partialRectangle;html=1;whiteSpace=wrap;connectable=0;fillColor=none;top=0;left=0;bottom=0;right=0;overflow=hidden;fontColor=#000000;fontSize=14;" vertex="1" parent="268">
                    <mxGeometry width="70" height="30" as="geometry">
                        <mxRectangle width="70" height="30" as="alternateBounds"/>
                    </mxGeometry>
                </mxCell>
                <mxCell id="270" value="id_jogador" style="shape=partialRectangle;html=1;whiteSpace=wrap;connectable=0;fillColor=none;top=0;left=0;bottom=0;right=0;align=left;spacingLeft=6;overflow=hidden;fontColor=#000000;fontSize=14;" vertex="1" parent="268">
                    <mxGeometry x="70" width="120" height="30" as="geometry">
                        <mxRectangle width="120" height="30" as="alternateBounds"/>
                    </mxGeometry>
                </mxCell>
                <mxCell id="271" value="" style="shape=tableRow;horizontal=0;startSize=0;swimlaneHead=0;swimlaneBody=0;top=0;left=0;bottom=0;right=0;collapsible=0;dropTarget=0;fillColor=none;points=[[0,0.5],[1,0.5]];portConstraint=eastwest;fontColor=#000000;fontSize=14;" vertex="1" parent="264">
                    <mxGeometry y="90" width="190" height="30" as="geometry"/>
                </mxCell>
                <mxCell id="272" value="String" style="shape=partialRectangle;html=1;whiteSpace=wrap;connectable=0;fillColor=none;top=0;left=0;bottom=0;right=0;overflow=hidden;fontColor=#000000;fontSize=14;" vertex="1" parent="271">
                    <mxGeometry width="70" height="30" as="geometry">
                        <mxRectangle width="70" height="30" as="alternateBounds"/>
                    </mxGeometry>
                </mxCell>
                <mxCell id="273" value="diaHora" style="shape=partialRectangle;html=1;whiteSpace=wrap;connectable=0;fillColor=none;top=0;left=0;bottom=0;right=0;align=left;spacingLeft=6;overflow=hidden;fontColor=#000000;fontSize=14;" vertex="1" parent="271">
                    <mxGeometry x="70" width="120" height="30" as="geometry">
                        <mxRectangle width="120" height="30" as="alternateBounds"/>
                    </mxGeometry>
                </mxCell>
                <mxCell id="277" style="shape=tableRow;horizontal=0;startSize=0;swimlaneHead=0;swimlaneBody=0;top=0;left=0;bottom=0;right=0;collapsible=0;dropTarget=0;fillColor=none;points=[[0,0.5],[1,0.5]];portConstraint=eastwest;fontColor=#000000;fontSize=14;" vertex="1" parent="264">
                    <mxGeometry y="120" width="190" height="30" as="geometry"/>
                </mxCell>
                <mxCell id="278" value="String" style="shape=partialRectangle;html=1;whiteSpace=wrap;connectable=0;fillColor=none;top=0;left=0;bottom=0;right=0;overflow=hidden;fontColor=#000000;fontSize=14;" vertex="1" parent="277">
                    <mxGeometry width="70" height="30" as="geometry">
                        <mxRectangle width="70" height="30" as="alternateBounds"/>
                    </mxGeometry>
                </mxCell>
                <mxCell id="279" value="nome" style="shape=partialRectangle;html=1;whiteSpace=wrap;connectable=0;fillColor=none;top=0;left=0;bottom=0;right=0;align=left;spacingLeft=6;overflow=hidden;fontColor=#000000;fontSize=14;" vertex="1" parent="277">
                    <mxGeometry x="70" width="120" height="30" as="geometry">
                        <mxRectangle width="120" height="30" as="alternateBounds"/>
                    </mxGeometry>
                </mxCell>
                <mxCell id="298" value="Partidas" style="shape=table;startSize=30;container=1;collapsible=0;childLayout=tableLayout;fixedRows=1;rowLines=0;fontStyle=1;rounded=1;strokeColor=#666666;fillColor=#f5f5f5;fontColor=#333333;fontSize=16;" vertex="1" parent="1">
                    <mxGeometry x="650" y="480" width="190" height="360" as="geometry"/>
                </mxCell>
                <mxCell id="299" value="" style="shape=tableRow;horizontal=0;startSize=0;swimlaneHead=0;swimlaneBody=0;top=0;left=0;bottom=0;right=0;collapsible=0;dropTarget=0;fillColor=none;points=[[0,0.5],[1,0.5]];portConstraint=eastwest;fontColor=#000000;fontSize=14;" vertex="1" parent="298">
                    <mxGeometry y="30" width="190" height="30" as="geometry"/>
                </mxCell>
                <mxCell id="300" value="String" style="shape=partialRectangle;html=1;whiteSpace=wrap;connectable=0;fillColor=none;top=0;left=0;bottom=0;right=0;overflow=hidden;pointerEvents=1;fontColor=#000000;fontSize=14;" vertex="1" parent="299">
                    <mxGeometry width="70" height="30" as="geometry">
                        <mxRectangle width="70" height="30" as="alternateBounds"/>
                    </mxGeometry>
                </mxCell>
                <mxCell id="301" value="id" style="shape=partialRectangle;html=1;whiteSpace=wrap;connectable=0;fillColor=none;top=0;left=0;bottom=0;right=0;align=left;spacingLeft=6;overflow=hidden;fontColor=#000000;fontSize=14;" vertex="1" parent="299">
                    <mxGeometry x="70" width="120" height="30" as="geometry">
                        <mxRectangle width="120" height="30" as="alternateBounds"/>
                    </mxGeometry>
                </mxCell>
                <mxCell id="302" value="" style="shape=tableRow;horizontal=0;startSize=0;swimlaneHead=0;swimlaneBody=0;top=0;left=0;bottom=0;right=0;collapsible=0;dropTarget=0;fillColor=none;points=[[0,0.5],[1,0.5]];portConstraint=eastwest;fontColor=#000000;fontSize=14;" vertex="1" parent="298">
                    <mxGeometry y="60" width="190" height="30" as="geometry"/>
                </mxCell>
                <mxCell id="303" value="String?" style="shape=partialRectangle;html=1;whiteSpace=wrap;connectable=0;fillColor=none;top=0;left=0;bottom=0;right=0;overflow=hidden;fontColor=#000000;fontSize=14;" vertex="1" parent="302">
                    <mxGeometry width="70" height="30" as="geometry">
                        <mxRectangle width="70" height="30" as="alternateBounds"/>
                    </mxGeometry>
                </mxCell>
                <mxCell id="304" value="id_campeonato" style="shape=partialRectangle;html=1;whiteSpace=wrap;connectable=0;fillColor=none;top=0;left=0;bottom=0;right=0;align=left;spacingLeft=6;overflow=hidden;fontColor=#000000;fontSize=14;" vertex="1" parent="302">
                    <mxGeometry x="70" width="120" height="30" as="geometry">
                        <mxRectangle width="120" height="30" as="alternateBounds"/>
                    </mxGeometry>
                </mxCell>
                <mxCell id="305" value="" style="shape=tableRow;horizontal=0;startSize=0;swimlaneHead=0;swimlaneBody=0;top=0;left=0;bottom=0;right=0;collapsible=0;dropTarget=0;fillColor=none;points=[[0,0.5],[1,0.5]];portConstraint=eastwest;fontColor=#000000;fontSize=14;" vertex="1" parent="298">
                    <mxGeometry y="90" width="190" height="30" as="geometry"/>
                </mxCell>
                <mxCell id="306" value="String" style="shape=partialRectangle;html=1;whiteSpace=wrap;connectable=0;fillColor=none;top=0;left=0;bottom=0;right=0;overflow=hidden;fontColor=#000000;fontSize=14;" vertex="1" parent="305">
                    <mxGeometry width="70" height="30" as="geometry">
                        <mxRectangle width="70" height="30" as="alternateBounds"/>
                    </mxGeometry>
                </mxCell>
                <mxCell id="307" value="chave" style="shape=partialRectangle;html=1;whiteSpace=wrap;connectable=0;fillColor=none;top=0;left=0;bottom=0;right=0;align=left;spacingLeft=6;overflow=hidden;fontColor=#000000;fontSize=14;" vertex="1" parent="305">
                    <mxGeometry x="70" width="120" height="30" as="geometry">
                        <mxRectangle width="120" height="30" as="alternateBounds"/>
                    </mxGeometry>
                </mxCell>
                <mxCell id="308" style="shape=tableRow;horizontal=0;startSize=0;swimlaneHead=0;swimlaneBody=0;top=0;left=0;bottom=0;right=0;collapsible=0;dropTarget=0;fillColor=none;points=[[0,0.5],[1,0.5]];portConstraint=eastwest;fontColor=#000000;fontSize=14;" vertex="1" parent="298">
                    <mxGeometry y="120" width="190" height="30" as="geometry"/>
                </mxCell>
                <mxCell id="309" value="String" style="shape=partialRectangle;html=1;whiteSpace=wrap;connectable=0;fillColor=none;top=0;left=0;bottom=0;right=0;overflow=hidden;fontColor=#000000;fontSize=14;" vertex="1" parent="308">
                    <mxGeometry width="70" height="30" as="geometry">
                        <mxRectangle width="70" height="30" as="alternateBounds"/>
                    </mxGeometry>
                </mxCell>
                <mxCell id="310" value="senha" style="shape=partialRectangle;html=1;whiteSpace=wrap;connectable=0;fillColor=none;top=0;left=0;bottom=0;right=0;align=left;spacingLeft=6;overflow=hidden;fontColor=#000000;fontSize=14;" vertex="1" parent="308">
                    <mxGeometry x="70" width="120" height="30" as="geometry">
                        <mxRectangle width="120" height="30" as="alternateBounds"/>
                    </mxGeometry>
                </mxCell>
                <mxCell id="311" style="shape=tableRow;horizontal=0;startSize=0;swimlaneHead=0;swimlaneBody=0;top=0;left=0;bottom=0;right=0;collapsible=0;dropTarget=0;fillColor=none;points=[[0,0.5],[1,0.5]];portConstraint=eastwest;fontColor=#000000;fontSize=14;" vertex="1" parent="298">
                    <mxGeometry y="150" width="190" height="30" as="geometry"/>
                </mxCell>
                <mxCell id="312" value="String" style="shape=partialRectangle;html=1;whiteSpace=wrap;connectable=0;fillColor=none;top=0;left=0;bottom=0;right=0;overflow=hidden;fontColor=#000000;fontSize=14;" vertex="1" parent="311">
                    <mxGeometry width="70" height="30" as="geometry">
                        <mxRectangle width="70" height="30" as="alternateBounds"/>
                    </mxGeometry>
                </mxCell>
                <mxCell id="313" value="nome" style="shape=partialRectangle;html=1;whiteSpace=wrap;connectable=0;fillColor=none;top=0;left=0;bottom=0;right=0;align=left;spacingLeft=6;overflow=hidden;fontColor=#000000;fontSize=14;" vertex="1" parent="311">
                    <mxGeometry x="70" width="120" height="30" as="geometry">
                        <mxRectangle width="120" height="30" as="alternateBounds"/>
                    </mxGeometry>
                </mxCell>
                <mxCell id="314" style="shape=tableRow;horizontal=0;startSize=0;swimlaneHead=0;swimlaneBody=0;top=0;left=0;bottom=0;right=0;collapsible=0;dropTarget=0;fillColor=none;points=[[0,0.5],[1,0.5]];portConstraint=eastwest;fontColor=#000000;fontSize=14;" vertex="1" parent="298">
                    <mxGeometry y="180" width="190" height="30" as="geometry"/>
                </mxCell>
                <mxCell id="315" value="String" style="shape=partialRectangle;html=1;whiteSpace=wrap;connectable=0;fillColor=none;top=0;left=0;bottom=0;right=0;overflow=hidden;fontColor=#000000;fontSize=14;" vertex="1" parent="314">
                    <mxGeometry width="70" height="30" as="geometry">
                        <mxRectangle width="70" height="30" as="alternateBounds"/>
                    </mxGeometry>
                </mxCell>
                <mxCell id="316" value="sobrenome" style="shape=partialRectangle;html=1;whiteSpace=wrap;connectable=0;fillColor=none;top=0;left=0;bottom=0;right=0;align=left;spacingLeft=6;overflow=hidden;fontColor=#000000;fontSize=14;" vertex="1" parent="314">
                    <mxGeometry x="70" width="120" height="30" as="geometry">
                        <mxRectangle width="120" height="30" as="alternateBounds"/>
                    </mxGeometry>
                </mxCell>
                <mxCell id="317" style="shape=tableRow;horizontal=0;startSize=0;swimlaneHead=0;swimlaneBody=0;top=0;left=0;bottom=0;right=0;collapsible=0;dropTarget=0;fillColor=none;points=[[0,0.5],[1,0.5]];portConstraint=eastwest;fontColor=#000000;fontSize=14;" vertex="1" parent="298">
                    <mxGeometry y="210" width="190" height="30" as="geometry"/>
                </mxCell>
                <mxCell id="318" value="DateTime" style="shape=partialRectangle;html=1;whiteSpace=wrap;connectable=0;fillColor=none;top=0;left=0;bottom=0;right=0;overflow=hidden;fontColor=#000000;fontSize=14;" vertex="1" parent="317">
                    <mxGeometry width="70" height="30" as="geometry">
                        <mxRectangle width="70" height="30" as="alternateBounds"/>
                    </mxGeometry>
                </mxCell>
                <mxCell id="319" value="dataNascimento" style="shape=partialRectangle;html=1;whiteSpace=wrap;connectable=0;fillColor=none;top=0;left=0;bottom=0;right=0;align=left;spacingLeft=6;overflow=hidden;fontColor=#000000;fontSize=14;" vertex="1" parent="317">
                    <mxGeometry x="70" width="120" height="30" as="geometry">
                        <mxRectangle width="120" height="30" as="alternateBounds"/>
                    </mxGeometry>
                </mxCell>
                <mxCell id="320" style="shape=tableRow;horizontal=0;startSize=0;swimlaneHead=0;swimlaneBody=0;top=0;left=0;bottom=0;right=0;collapsible=0;dropTarget=0;fillColor=none;points=[[0,0.5],[1,0.5]];portConstraint=eastwest;fontColor=#000000;fontSize=14;" vertex="1" parent="298">
                    <mxGeometry y="240" width="190" height="30" as="geometry"/>
                </mxCell>
                <mxCell id="321" value="String?" style="shape=partialRectangle;html=1;whiteSpace=wrap;connectable=0;fillColor=none;top=0;left=0;bottom=0;right=0;overflow=hidden;fontColor=#000000;fontSize=14;" vertex="1" parent="320">
                    <mxGeometry width="70" height="30" as="geometry">
                        <mxRectangle width="70" height="30" as="alternateBounds"/>
                    </mxGeometry>
                </mxCell>
                <mxCell id="322" value="celular" style="shape=partialRectangle;html=1;whiteSpace=wrap;connectable=0;fillColor=none;top=0;left=0;bottom=0;right=0;align=left;spacingLeft=6;overflow=hidden;fontColor=#000000;fontSize=14;" vertex="1" parent="320">
                    <mxGeometry x="70" width="120" height="30" as="geometry">
                        <mxRectangle width="120" height="30" as="alternateBounds"/>
                    </mxGeometry>
                </mxCell>
                <mxCell id="323" style="shape=tableRow;horizontal=0;startSize=0;swimlaneHead=0;swimlaneBody=0;top=0;left=0;bottom=0;right=0;collapsible=0;dropTarget=0;fillColor=none;points=[[0,0.5],[1,0.5]];portConstraint=eastwest;fontColor=#000000;fontSize=14;" vertex="1" parent="298">
                    <mxGeometry y="270" width="190" height="30" as="geometry"/>
                </mxCell>
                <mxCell id="324" value="String?" style="shape=partialRectangle;html=1;whiteSpace=wrap;connectable=0;fillColor=none;top=0;left=0;bottom=0;right=0;overflow=hidden;fontColor=#000000;fontSize=14;" vertex="1" parent="323">
                    <mxGeometry width="70" height="30" as="geometry">
                        <mxRectangle width="70" height="30" as="alternateBounds"/>
                    </mxGeometry>
                </mxCell>
                <mxCell id="325" value="telefone" style="shape=partialRectangle;html=1;whiteSpace=wrap;connectable=0;fillColor=none;top=0;left=0;bottom=0;right=0;align=left;spacingLeft=6;overflow=hidden;fontColor=#000000;fontSize=14;" vertex="1" parent="323">
                    <mxGeometry x="70" width="120" height="30" as="geometry">
                        <mxRectangle width="120" height="30" as="alternateBounds"/>
                    </mxGeometry>
                </mxCell>
                <mxCell id="326" style="shape=tableRow;horizontal=0;startSize=0;swimlaneHead=0;swimlaneBody=0;top=0;left=0;bottom=0;right=0;collapsible=0;dropTarget=0;fillColor=none;points=[[0,0.5],[1,0.5]];portConstraint=eastwest;fontColor=#000000;fontSize=14;" vertex="1" parent="298">
                    <mxGeometry y="300" width="190" height="30" as="geometry"/>
                </mxCell>
                <mxCell id="327" value="String" style="shape=partialRectangle;html=1;whiteSpace=wrap;connectable=0;fillColor=none;top=0;left=0;bottom=0;right=0;overflow=hidden;fontColor=#000000;fontSize=14;" vertex="1" parent="326">
                    <mxGeometry width="70" height="30" as="geometry">
                        <mxRectangle width="70" height="30" as="alternateBounds"/>
                    </mxGeometry>
                </mxCell>
                <mxCell id="328" value="cargo" style="shape=partialRectangle;html=1;whiteSpace=wrap;connectable=0;fillColor=none;top=0;left=0;bottom=0;right=0;align=left;spacingLeft=6;overflow=hidden;fontColor=#000000;fontSize=14;" vertex="1" parent="326">
                    <mxGeometry x="70" width="120" height="30" as="geometry">
                        <mxRectangle width="120" height="30" as="alternateBounds"/>
                    </mxGeometry>
                </mxCell>
                <mxCell id="329" style="shape=tableRow;horizontal=0;startSize=0;swimlaneHead=0;swimlaneBody=0;top=0;left=0;bottom=0;right=0;collapsible=0;dropTarget=0;fillColor=none;points=[[0,0.5],[1,0.5]];portConstraint=eastwest;fontColor=#000000;fontSize=14;" vertex="1" parent="298">
                    <mxGeometry y="330" width="190" height="30" as="geometry"/>
                </mxCell>
                <mxCell id="330" value="String?" style="shape=partialRectangle;html=1;whiteSpace=wrap;connectable=0;fillColor=none;top=0;left=0;bottom=0;right=0;overflow=hidden;fontColor=#000000;fontSize=14;" vertex="1" parent="329">
                    <mxGeometry width="70" height="30" as="geometry">
                        <mxRectangle width="70" height="30" as="alternateBounds"/>
                    </mxGeometry>
                </mxCell>
                <mxCell id="331" value="rank" style="shape=partialRectangle;html=1;whiteSpace=wrap;connectable=0;fillColor=none;top=0;left=0;bottom=0;right=0;align=left;spacingLeft=6;overflow=hidden;fontColor=#000000;fontSize=14;" vertex="1" parent="329">
                    <mxGeometry x="70" width="120" height="30" as="geometry">
                        <mxRectangle width="120" height="30" as="alternateBounds"/>
                    </mxGeometry>
                </mxCell>
                <mxCell id="338" value="Tem" style="rhombus;whiteSpace=wrap;html=1;rounded=1;sketch=0;strokeColor=#000000;fontSize=15;fontColor=#000000;fillColor=none;" vertex="1" parent="1">
                    <mxGeometry x="95" y="490" width="80" height="80" as="geometry"/>
                </mxCell>
                <mxCell id="339" value="1" style="endArrow=none;html=1;fontSize=16;fontColor=#000000;exitX=0.5;exitY=0;exitDx=0;exitDy=0;rounded=1;strokeWidth=2;strokeColor=#000000;entryX=0.503;entryY=1.164;entryDx=0;entryDy=0;entryPerimeter=0;labelBackgroundColor=none;" edge="1" parent="1" source="338" target="47">
                    <mxGeometry x="0.5109" y="-16" width="50" height="50" relative="1" as="geometry">
                        <mxPoint x="340" y="570" as="sourcePoint"/>
                        <mxPoint x="250" y="420" as="targetPoint"/>
                        <mxPoint as="offset"/>
                    </mxGeometry>
                </mxCell>
                <mxCell id="340" value="n" style="endArrow=none;html=1;rounded=1;strokeColor=#000000;strokeWidth=2;fontSize=16;fontColor=#000000;exitX=0.5;exitY=0;exitDx=0;exitDy=0;entryX=0.5;entryY=1;entryDx=0;entryDy=0;fillColor=#f5f5f5;labelBackgroundColor=none;align=center;" edge="1" parent="1" source="264" target="338">
                    <mxGeometry x="-0.6667" y="-15" width="50" height="50" relative="1" as="geometry">
                        <mxPoint x="340" y="570" as="sourcePoint"/>
                        <mxPoint x="390" y="520" as="targetPoint"/>
                        <mxPoint as="offset"/>
                    </mxGeometry>
                </mxCell>
                <mxCell id="342" value="Tem" style="rhombus;whiteSpace=wrap;html=1;rounded=1;sketch=0;strokeColor=#000000;fontSize=15;fontColor=#000000;fillColor=none;" vertex="1" parent="1">
                    <mxGeometry x="510" y="45" width="80" height="80" as="geometry"/>
                </mxCell>
                <mxCell id="343" value="1" style="endArrow=none;html=1;fontSize=16;fontColor=#000000;exitX=0;exitY=0.5;exitDx=0;exitDy=0;rounded=1;strokeWidth=2;strokeColor=#000000;entryX=1;entryY=0.5;entryDx=0;entryDy=0;labelBackgroundColor=none;" edge="1" parent="1" source="342" target="7">
                    <mxGeometry x="0.5109" y="-16" width="50" height="50" relative="1" as="geometry">
                        <mxPoint x="645" y="465.08" as="sourcePoint"/>
                        <mxPoint x="440.56999999999994" y="300.00000000000006" as="targetPoint"/>
                        <mxPoint as="offset"/>
                    </mxGeometry>
                </mxCell>
                <mxCell id="344" value="n" style="endArrow=none;html=1;rounded=1;strokeColor=#000000;strokeWidth=2;fontSize=16;fontColor=#000000;entryX=1;entryY=0.5;entryDx=0;entryDy=0;fillColor=#f5f5f5;labelBackgroundColor=none;align=center;exitX=0;exitY=0.5;exitDx=0;exitDy=0;" edge="1" parent="1" target="342" source="197">
                    <mxGeometry x="-0.6667" y="-15" width="50" height="50" relative="1" as="geometry">
                        <mxPoint x="620" y="210" as="sourcePoint"/>
                        <mxPoint x="695" y="415.08" as="targetPoint"/>
                        <mxPoint as="offset"/>
                    </mxGeometry>
                </mxCell>
                <mxCell id="345" value="Faz" style="rhombus;whiteSpace=wrap;html=1;rounded=1;sketch=0;strokeColor=#000000;fontSize=15;fontColor=#000000;fillColor=none;" vertex="1" parent="1">
                    <mxGeometry x="300" y="255" width="80" height="80" as="geometry"/>
                </mxCell>
                <mxCell id="346" value="1" style="endArrow=none;html=1;fontSize=16;fontColor=#000000;exitX=0;exitY=0.5;exitDx=0;exitDy=0;rounded=1;strokeWidth=2;strokeColor=#000000;labelBackgroundColor=none;entryX=1;entryY=0.5;entryDx=0;entryDy=0;" edge="1" parent="1" source="345" target="38">
                    <mxGeometry x="0.5109" y="-16" width="50" height="50" relative="1" as="geometry">
                        <mxPoint x="665" y="570.0799999999999" as="sourcePoint"/>
                        <mxPoint x="230" y="300" as="targetPoint"/>
                        <mxPoint as="offset"/>
                    </mxGeometry>
                </mxCell>
                <mxCell id="347" value="n" style="endArrow=none;html=1;rounded=1;strokeColor=#000000;strokeWidth=2;fontSize=16;fontColor=#000000;entryX=1;entryY=0.5;entryDx=0;entryDy=0;fillColor=#f5f5f5;labelBackgroundColor=none;align=center;exitX=0;exitY=0.5;exitDx=0;exitDy=0;" edge="1" parent="1" target="345" source="234">
                    <mxGeometry x="-0.6667" y="-15" width="50" height="50" relative="1" as="geometry">
                        <mxPoint x="430" y="200" as="sourcePoint"/>
                        <mxPoint x="715" y="520.0799999999999" as="targetPoint"/>
                        <mxPoint as="offset"/>
                    </mxGeometry>
                </mxCell>
                <mxCell id="349" value="Tem" style="rhombus;whiteSpace=wrap;html=1;rounded=1;sketch=0;strokeColor=#000000;fontSize=15;fontColor=#000000;fillColor=none;" vertex="1" parent="1">
                    <mxGeometry x="720" y="255" width="80" height="80" as="geometry"/>
                </mxCell>
                <mxCell id="350" value="n" style="endArrow=none;html=1;fontSize=16;fontColor=#000000;exitX=0;exitY=0.5;exitDx=0;exitDy=0;rounded=1;strokeWidth=2;strokeColor=#000000;labelBackgroundColor=none;entryX=1;entryY=0.5;entryDx=0;entryDy=0;" edge="1" parent="1" source="349" target="234">
                    <mxGeometry x="0.5109" y="-16" width="50" height="50" relative="1" as="geometry">
                        <mxPoint x="1085" y="455.0799999999999" as="sourcePoint"/>
                        <mxPoint x="650" y="180" as="targetPoint"/>
                        <mxPoint as="offset"/>
                    </mxGeometry>
                </mxCell>
                <mxCell id="351" value="1" style="endArrow=none;html=1;rounded=1;strokeColor=#000000;strokeWidth=2;fontSize=16;fontColor=#000000;entryX=1;entryY=0.5;entryDx=0;entryDy=0;fillColor=#f5f5f5;labelBackgroundColor=none;align=center;exitX=0;exitY=0.5;exitDx=0;exitDy=0;" edge="1" parent="1" target="349" source="218">
                    <mxGeometry x="-0.6667" y="-15" width="50" height="50" relative="1" as="geometry">
                        <mxPoint x="869.9999999999998" y="180" as="sourcePoint"/>
                        <mxPoint x="1135" y="405.0799999999999" as="targetPoint"/>
                        <mxPoint as="offset"/>
                    </mxGeometry>
                </mxCell>
                <mxCell id="352" value="Tem" style="rhombus;whiteSpace=wrap;html=1;rounded=1;sketch=0;strokeColor=#000000;fontSize=15;fontColor=#000000;fillColor=none;" vertex="1" parent="1">
                    <mxGeometry x="925" y="575" width="80" height="80" as="geometry"/>
                </mxCell>
                <mxCell id="353" value="1" style="endArrow=none;html=1;fontSize=16;fontColor=#000000;exitX=0.5;exitY=0;exitDx=0;exitDy=0;rounded=1;strokeWidth=2;strokeColor=#000000;labelBackgroundColor=none;" edge="1" parent="1" source="352">
                    <mxGeometry x="0.6" y="-15" width="50" height="50" relative="1" as="geometry">
                        <mxPoint x="1155" y="675.08" as="sourcePoint"/>
                        <mxPoint x="965" y="460" as="targetPoint"/>
                        <mxPoint as="offset"/>
                    </mxGeometry>
                </mxCell>
                <mxCell id="354" value="n" style="endArrow=none;html=1;rounded=1;strokeColor=#000000;strokeWidth=2;fontSize=16;fontColor=#000000;entryX=0;entryY=0.5;entryDx=0;entryDy=0;fillColor=#f5f5f5;labelBackgroundColor=none;align=center;exitX=1;exitY=0.5;exitDx=0;exitDy=0;" edge="1" parent="1" target="352" source="308">
                    <mxGeometry x="-0.5294" y="-15" width="50" height="50" relative="1" as="geometry">
                        <mxPoint x="840" y="660" as="sourcePoint"/>
                        <mxPoint x="1205" y="625.08" as="targetPoint"/>
                        <mxPoint as="offset"/>
                    </mxGeometry>
                </mxCell>
                <mxCell id="355" value="Gera" style="rhombus;whiteSpace=wrap;html=1;rounded=1;sketch=0;strokeColor=#000000;fontSize=15;fontColor=#000000;fillColor=none;" vertex="1" parent="1">
                    <mxGeometry x="470" y="575" width="80" height="80" as="geometry"/>
                </mxCell>
                <mxCell id="356" value="1" style="endArrow=none;html=1;fontSize=16;fontColor=#000000;exitX=0.5;exitY=0;exitDx=0;exitDy=0;rounded=1;strokeWidth=2;strokeColor=#000000;labelBackgroundColor=none;entryX=0.32;entryY=1.046;entryDx=0;entryDy=0;entryPerimeter=0;" edge="1" parent="1" source="355" target="243">
                    <mxGeometry x="0.9012" y="-9" width="50" height="50" relative="1" as="geometry">
                        <mxPoint x="510" y="661.6600000000001" as="sourcePoint"/>
                        <mxPoint x="510" y="410" as="targetPoint"/>
                        <mxPoint as="offset"/>
                    </mxGeometry>
                </mxCell>
                <mxCell id="357" value="1" style="endArrow=none;html=1;rounded=1;strokeColor=#000000;strokeWidth=2;fontSize=16;fontColor=#000000;fillColor=#f5f5f5;labelBackgroundColor=none;align=center;exitX=0;exitY=0.5;exitDx=0;exitDy=0;entryX=1;entryY=0.5;entryDx=0;entryDy=0;" edge="1" parent="1" target="355" source="308">
                    <mxGeometry x="-0.8" y="-15" width="50" height="50" relative="1" as="geometry">
                        <mxPoint x="620" y="595" as="sourcePoint"/>
                        <mxPoint x="356.14" y="586.58" as="targetPoint"/>
                        <mxPoint x="-1" as="offset"/>
                    </mxGeometry>
                </mxCell>
            </root>
        </mxGraphModel>
    </diagram>
</mxfile>